<svg xmlns="http://www.w3.org/2000/svg" viewBox="0 0 64 64" height="40" width="40" id="target">
    <path
        d="M32,11c-20.34817.13682-28.591,26.04754-12.3818,37.923a21.02368,21.02368,0,0,0,24.76387-.00024C60.59043,37.05011,52.34656,11.13252,32,11ZM21,47.46307a8.03669,8.03669,0,0,1,7.56128-8.44085,4.01162,4.01162,0,0,0,6.88342.0003A8.03669,8.03669,0,0,1,43,47.46307C36.8942,52.11915,27.1056,52.1189,21,47.46307ZM32,35a9.00984,9.00984,0,0,1-9-9c.494-11.9398,17.50785-11.93632,18,.00007A9.00986,9.00986,0,0,1,32,35Zm0,2a10.98831,10.98831,0,0,0,2-.1911,2.00653,2.00653,0,1,1-4,0A10.98831,10.98831,0,0,0,32,37Zm12.933,8.87939a10.01546,10.01546,0,0,0-8.93737-8.82891C35.99585,37.03326,36,37.01727,36,37v-.764C47.16336,31.71137,44.19545,15.21309,31.99984,15,19.80265,15.214,16.83814,31.71356,28,36.236V37c0,.0174.00415.03314.00439.05048A10.01558,10.01558,0,0,0,19.067,45.87939C6.53969,34.28264,14.74816,13.04391,32.00022,13.00007,49.25243,13.044,57.46033,34.28584,44.933,45.87939Z"
        fill="#34a853" class="color000000 svgShape"></path>
    <path
        d="M61 31H57.97461A26.02535 26.02535 0 0033 6.02533V3a1 1 0 00-2 0V6.02533A26.02535 26.02535 0 006.02539 31H3a1 1 0 000 2H6.02539A26.02535 26.02535 0 0031 57.97467V61a1 1 0 002 0V57.97467A26.02535 26.02535 0 0057.97461 33H61A1.0001 1.0001 0 0061 31zM33 55.97461V55a1 1 0 00-2 0v.97461A24.02621 24.02621 0 018.02539 33H9a1 1 0 000-2H8.02539A24.02621 24.02621 0 0131 8.02539V9a1 1 0 002 0V8.02539A24.02621 24.02621 0 0155.97461 31H55a1 1 0 000 2h.97461A24.02621 24.02621 0 0133 55.97461zM51 6h4a1.00067 1.00067 0 011 1v4a1.00011 1.00011 0 002 0V7a3.00328 3.00328 0 00-3-3H51A1.0001 1.0001 0 0051 6zM7 12a.99943.99943 0 001-1V7A1.00067 1.00067 0 019 6h4a1 1 0 000-2H9A3.00328 3.00328 0 006 7v4A.99943.99943 0 007 12zM57 52a.99943.99943 0 00-1 1v4a1.00067 1.00067 0 01-1 1H51a1 1 0 000 2h4a3.00328 3.00328 0 003-3V53A.99943.99943 0 0057 52zM13 58H9a1.00067 1.00067 0 01-1-1V53a1.00011 1.00011 0 00-2 0v4a3.00328 3.00328 0 003 3h4A1.0001 1.0001 0 0013 58z"
        fill="#34a853" class="color000000 svgShape"></path>
</svg>