<svg xmlns="http://www.w3.org/2000/svg" fill="none" viewBox="0 0 32 32" height="40" width="40" id="pricing">
    <path fill="#E0990C"
        d="M9 14.125C9 13.8489 8.77614 13.625 8.5 13.625 8.22386 13.625 8 13.8489 8 14.125V15.875C8 16.1511 8.22386 16.375 8.5 16.375 8.77614 16.375 9 16.1511 9 15.875V14.125zM9 17.625C9 17.3489 8.77614 17.125 8.5 17.125 8.22386 17.125 8 17.3489 8 17.625V19.375C8 19.6511 8.22386 19.875 8.5 19.875 8.77614 19.875 9 19.6511 9 19.375V17.625zM9 21.125C9 20.8489 8.77614 20.625 8.5 20.625 8.22386 20.625 8 20.8489 8 21.125V22.875C8 23.1511 8.22386 23.375 8.5 23.375 8.77614 23.375 9 23.1511 9 22.875V21.125zM24.3536 14.3536L15.3536 23.3536C15.1583 23.5488 14.8417 23.5488 14.6464 23.3536 14.4512 23.1583 14.4512 22.8417 14.6464 22.6464L23.6464 13.6464C23.8417 13.4512 24.1583 13.4512 24.3536 13.6464 24.5488 13.8417 24.5488 14.1583 24.3536 14.3536z"
        class="color000000 svgShape"></path>
    <path fill="#E0990C" fill-rule="evenodd"
        d="M18 15.5C18 16.3284 17.3284 17 16.5 17 15.6716 17 15 16.3284 15 15.5 15 14.6716 15.6716 14 16.5 14 17.3284 14 18 14.6716 18 15.5zM17 15.5C17 15.7761 16.7761 16 16.5 16 16.2239 16 16 15.7761 16 15.5 16 15.2239 16.2239 15 16.5 15 16.7761 15 17 15.2239 17 15.5zM22.5 23C23.3284 23 24 22.3284 24 21.5 24 20.6716 23.3284 20 22.5 20 21.6716 20 21 20.6716 21 21.5 21 22.3284 21.6716 23 22.5 23zM22.5 22C22.7761 22 23 21.7761 23 21.5 23 21.2239 22.7761 21 22.5 21 22.2239 21 22 21.2239 22 21.5 22 21.7761 22.2239 22 22.5 22z"
        clip-rule="evenodd" class="color000000 svgShape"></path>
    <path fill="#E0990C" fill-rule="evenodd"
        d="M27.9843 11.1652L27.1828 8.23089C26.7462 6.63259 25.0932 5.67835 23.4908 6.09953L4.82801 11.0048C3.25118 11.094 2 12.4009 2 14V23C2 24.6569 3.34315 26 5 26H27C28.6569 26 30 24.6569 30 23V14C30 12.6879 29.1577 11.5726 27.9843 11.1652ZM8.7801 11H26.9026L26.2156 8.48509C25.9246 7.41956 24.8226 6.7834 23.7543 7.06419L8.7801 11ZM27.5 12.063V13C27.5 13.8284 28.1716 14.5 29 14.5V14C29 13.0681 28.3626 12.285 27.5 12.063ZM9 25H26.5V24C26.5 22.6193 27.6193 21.5 29 21.5V15.5C27.6193 15.5 26.5 14.3807 26.5 13V12H9V12.375C9 12.6511 8.77614 12.875 8.5 12.875C8.22386 12.875 8 12.6511 8 12.375V12H5C3.89543 12 3 12.8954 3 14V23C3 24.1046 3.89543 25 5 25H8V24.625C8 24.3489 8.22386 24.125 8.5 24.125C8.77614 24.125 9 24.3489 9 24.625V25ZM29 23C29 23.9319 28.3626 24.715 27.5 24.937V24C27.5 23.1716 28.1716 22.5 29 22.5V23Z"
        clip-rule="evenodd" class="color000000 svgShape"></path>
</svg>