<svg width="24" height="24" viewBox="0 0 24 24" fill="none" xmlns="http://www.w3.org/2000/svg">
<g id="Linear Icons/dashboard">
<path id="Vector" d="M7.75 10.74C7.75 10.3258 7.41421 9.99 7 9.99C6.58579 9.99 6.25 10.3258 6.25 10.74H7.75ZM6.25 13.94C6.25 14.3542 6.58579 14.69 7 14.69C7.41421 14.69 7.75 14.3542 7.75 13.94H6.25ZM12.75 9C12.75 8.58579 12.4142 8.25 12 8.25C11.5858 8.25 11.25 8.58579 11.25 9H12.75ZM11.25 15.68C11.25 16.0942 11.5858 16.43 12 16.43C12.4142 16.43 12.75 16.0942 12.75 15.68H11.25ZM17.75 10.74C17.75 10.3258 17.4142 9.99 17 9.99C16.5858 9.99 16.25 10.3258 16.25 10.74H17.75ZM16.25 13.94C16.25 14.3542 16.5858 14.69 17 14.69C17.4142 14.69 17.75 14.3542 17.75 13.94H16.25ZM6.25 10.74V13.94H7.75V10.74H6.25ZM11.25 9V15.68H12.75V9H11.25ZM16.25 10.74V13.94H17.75V10.74H16.25ZM9 22.75H15V21.25H9V22.75ZM15 22.75C17.574 22.75 19.5709 22.2398 20.9053 20.9053C22.2398 19.5709 22.75 17.574 22.75 15H21.25C21.25 17.426 20.7602 18.9291 19.8447 19.8447C18.9291 20.7602 17.426 21.25 15 21.25V22.75ZM22.75 15V9H21.25V15H22.75ZM22.75 9C22.75 6.42603 22.2398 4.42914 20.9053 3.09467C19.5709 1.7602 17.574 1.25 15 1.25V2.75C17.426 2.75 18.9291 3.2398 19.8447 4.15533C20.7602 5.07086 21.25 6.57397 21.25 9H22.75ZM15 1.25H9V2.75H15V1.25ZM9 1.25C6.42603 1.25 4.42914 1.7602 3.09467 3.09467C1.7602 4.42914 1.25 6.42603 1.25 9H2.75C2.75 6.57397 3.2398 5.07086 4.15533 4.15533C5.07086 3.2398 6.57397 2.75 9 2.75V1.25ZM1.25 9V15H2.75V9H1.25ZM1.25 15C1.25 17.574 1.7602 19.5709 3.09467 20.9053C4.42914 22.2398 6.42603 22.75 9 22.75V21.25C6.57397 21.25 5.07086 20.7602 4.15533 19.8447C3.2398 18.9291 2.75 17.426 2.75 15H1.25Z" fill="black"/>
</g>
</svg>
