<svg width="24" height="24" viewBox="0 0 24 24" fill="none" xmlns="http://www.w3.org/2000/svg">
<g id="Linear Icons/eye-slash">
<path id="Vector" fill-rule="evenodd" clip-rule="evenodd" d="M22.5294 2.53028C22.8223 2.23739 22.8223 1.76252 22.5294 1.46962C22.2365 1.17673 21.7617 1.17673 21.4688 1.46962L17.9803 4.95811C16.1826 3.6847 14.1335 2.97993 12 2.97993C8.15206 2.97993 4.64845 5.24854 2.25753 9.0069C1.71234 9.86131 1.46504 10.9559 1.46504 12.0049C1.46504 13.054 1.71233 14.1485 2.2575 15.0029C3.01282 16.1885 3.88595 17.2322 4.84016 18.0991L1.46967 21.4696C1.17678 21.7625 1.17678 22.2374 1.46967 22.5303C1.76256 22.8232 2.23744 22.8232 2.53033 22.5303L10.0002 15.0604L10.0003 15.0603L10.0049 15.0556L15.0602 10.0004C15.0673 9.99327 15.0742 9.98603 15.081 9.97869L22.5294 2.53028ZM14.4837 8.45474L16.902 6.03637C15.3873 5.01868 13.7126 4.47993 12 4.47993C8.78819 4.47993 5.71193 6.37114 3.52286 9.81248L3.52223 9.81346C3.16765 10.369 2.96504 11.1642 2.96504 12.0049C2.96504 12.8457 3.16765 13.6409 3.52223 14.1964L3.52258 14.1969C4.22615 15.3013 5.03342 16.2573 5.90219 17.0371L8.45486 14.4844C7.9603 13.7817 7.66982 12.9266 7.66982 12.0001C7.66982 9.60586 9.60561 7.67007 11.9998 7.67007C12.9262 7.67007 13.781 7.9604 14.4837 8.45474ZM9.16982 12.0001C9.16982 10.4343 10.434 9.17007 11.9998 9.17007C12.5102 9.17007 12.9863 9.304 13.3989 9.54036L9.54012 13.3991C9.30375 12.9866 9.16982 12.5105 9.16982 12.0001ZM19.5798 7.34552C19.9025 7.08591 20.3746 7.1371 20.6342 7.45987C21.0181 7.93713 21.3953 8.44999 21.7431 8.99807C22.2878 9.85231 22.5348 10.9464 22.5348 11.9949C22.5348 13.044 22.2875 14.1386 21.7423 14.993C19.3514 18.7513 15.8478 21.0199 11.9998 21.0199C10.6633 21.0199 9.35465 20.7373 8.12878 20.2212C7.74703 20.0604 7.56786 19.6206 7.7286 19.2389C7.88934 18.8571 8.32911 18.678 8.71087 18.8387C9.765 19.2826 10.8764 19.5199 11.9998 19.5199C15.2117 19.5199 18.2879 17.6287 20.477 14.1874L20.4776 14.1864C20.8322 13.6309 21.0348 12.8357 21.0348 11.9949C21.0348 11.1542 20.8322 10.359 20.4776 9.80346L20.4766 9.8018C20.1644 9.30988 19.8215 8.84274 19.4654 8.4C19.2058 8.07724 19.257 7.60514 19.5798 7.34552ZM16.2468 12.8361C16.3219 12.4287 16.0526 12.0376 15.6453 11.9625C15.2379 11.8874 14.8468 12.1567 14.7717 12.564C14.5681 13.6682 13.6574 14.5789 12.5533 14.7825C12.1459 14.8576 11.8766 15.2487 11.9517 15.6561C12.0268 16.0634 12.4179 16.3327 12.8253 16.2576C14.5411 15.9412 15.9304 14.5519 16.2468 12.8361Z" fill="black"/>
</g>
</svg>
