<svg width="24" height="24" viewBox="0 0 24 24" fill="none" xmlns="http://www.w3.org/2000/svg">
<g id="Linear Icons/eye">
<path id="Vector" fill-rule="evenodd" clip-rule="evenodd" d="M12.0003 2.97993C8.15235 2.97993 4.64874 5.24854 2.25783 9.0069C1.71263 9.86131 1.46533 10.9559 1.46533 12.0049C1.46533 13.0538 1.71254 14.1481 2.25751 15.0025C4.64844 18.7611 8.15218 21.0299 12.0003 21.0299C15.8485 21.0299 19.3522 18.7611 21.7432 15.0025C22.2881 14.1481 22.5353 13.0538 22.5353 12.0049C22.5353 10.9557 22.2879 9.86089 21.7425 9.00641C21.5197 8.65726 21.056 8.55488 20.7068 8.77774C20.3577 9.0006 20.2553 9.46431 20.4781 9.81346C20.8327 10.369 21.0353 11.1642 21.0353 12.0049C21.0353 12.8457 20.8327 13.6409 20.4781 14.1964L20.4775 14.1974C18.2884 17.6387 15.2122 19.5299 12.0003 19.5299C8.78848 19.5299 5.71223 17.6387 3.52315 14.1974L3.52252 14.1964C3.16794 13.6409 2.96533 12.8457 2.96533 12.0049C2.96533 11.1642 3.16794 10.369 3.52252 9.81346L3.52315 9.81248C5.71223 6.37114 8.78848 4.47993 12.0003 4.47993C13.7997 4.47993 15.5502 5.07244 17.1261 6.19145C17.4638 6.43127 17.932 6.35188 18.1719 6.01415C18.4117 5.67642 18.3323 5.20823 17.9945 4.96841C16.1905 3.68743 14.1409 2.97993 12.0003 2.97993ZM9.17012 12.0001C9.17012 10.4343 10.4343 9.17007 12.0001 9.17007C13.5659 9.17007 14.8301 10.4343 14.8301 12.0001C14.8301 13.5659 13.5659 14.8301 12.0001 14.8301C11.5859 14.8301 11.2501 15.1659 11.2501 15.5801C11.2501 15.9943 11.5859 16.3301 12.0001 16.3301C14.3943 16.3301 16.3301 14.3943 16.3301 12.0001C16.3301 9.60586 14.3943 7.67007 12.0001 7.67007C9.6059 7.67007 7.67012 9.60586 7.67012 12.0001C7.67012 12.8904 7.93535 13.7282 8.41114 14.4236C8.64504 14.7654 9.11178 14.853 9.45363 14.6191C9.79548 14.3852 9.883 13.9184 9.6491 13.5766C9.34489 13.1319 9.17012 12.5897 9.17012 12.0001Z" fill="black"/>
</g>
</svg>
