<svg width="24" height="24" viewBox="0 0 24 24" fill="none" xmlns="http://www.w3.org/2000/svg">
    <g id="Linear Icons/log out">
        <path id="Vector"
            d="M5.38844 8.43007C5.68128 8.13712 6.15615 8.13703 6.4491 8.42986C6.74205 8.7227 6.74215 9.19757 6.44931 9.49052L5.38844 8.43007ZM2.88037 12L2.34994 12.5302C2.05718 12.2374 2.05718 11.7626 2.34994 11.4698L2.88037 12ZM6.44931 14.5095C6.74215 14.8024 6.74205 15.2773 6.4491 15.5701C6.15615 15.863 5.68128 15.8629 5.38844 15.5699L6.44931 14.5095ZM13.4977 11.25C13.9119 11.25 14.2477 11.5858 14.2477 12C14.2477 12.4142 13.9119 12.75 13.4977 12.75L13.4977 11.25ZM4.37768 12.75C3.96347 12.75 3.62768 12.4142 3.62768 12C3.62768 11.5858 3.96347 11.25 4.37768 11.25L4.37768 12.75ZM11.7697 21.774C11.3555 21.774 11.0197 21.4382 11.0197 21.024C11.0197 20.6098 11.3555 20.274 11.7697 20.274V21.774ZM11.7697 3.63C11.3555 3.63 11.0197 3.29421 11.0197 2.88C11.0197 2.46579 11.3555 2.13 11.7697 2.13V3.63ZM6.44931 9.49052L3.41081 12.5302L2.34994 11.4698L5.38844 8.43007L6.44931 9.49052ZM3.41081 11.4698L6.44931 14.5095L5.38844 15.5699L2.34994 12.5302L3.41081 11.4698ZM13.4977 12.75L4.37768 12.75L4.37768 11.25L13.4977 11.25L13.4977 12.75ZM11.7697 20.274L18.5857 20.274V21.774L11.7697 21.774V20.274ZM18.5857 20.274C20.3983 20.274 21.8677 18.8046 21.8677 16.992H23.3677C23.3677 19.633 21.2267 21.774 18.5857 21.774V20.274ZM21.8677 16.992V6.912H23.3677V16.992H21.8677ZM21.8677 6.912C21.8677 5.0994 20.3983 3.63 18.5857 3.63V2.13C21.2267 2.13 23.3677 4.27098 23.3677 6.912H21.8677ZM18.5857 3.63L11.7697 3.63V2.13L18.5857 2.13V3.63Z"
            fill="#327e9d" />
    </g>
</svg>