<svg xmlns="http://www.w3.org/2000/svg" xmlns:xlink="http://www.w3.org/1999/xlink" version="1.1" width="1000" height="1000" viewBox="0 0 1000 1000" xml:space="preserve">
<desc>Created with Fabric.js 3.5.0</desc>
<defs>
</defs>
<rect x="0" y="0" width="100%" height="100%" fill="#ffffff"/>
<g transform="matrix(0 1.7472 -1.7756 0 492.7191 500.0105)" id="339015">
<g style="" vector-effect="non-scaling-stroke">
		<g transform="matrix(1 0 0 1 7.91 -119.045)" id="Layer_1">
<path style="stroke: none; stroke-width: 1; stroke-dasharray: none; stroke-linecap: butt; stroke-dashoffset: 0; stroke-linejoin: miter; stroke-miterlimit: 4; is-custom-font: none; font-file-url: none; fill: #63BBA4; fill-rule: nonzero; opacity: 1;" transform=" translate(-263.91, -136.955)" d="M 290.29 173.98 v 81.16 l 131.9 -118.18 L 290.29 10.33 v 70.35 c -154.32 0 -184.66 182.9 -184.66 182.9 C 149.33 181.81 206.54 173.98 290.29 173.98 z" stroke-linecap="round"/>
</g>
		<g transform="matrix(1 0 0 1 7.9105 -119.0452)" id="Layer_1">
<path style="stroke: none; stroke-width: 1; stroke-dasharray: none; stroke-linecap: butt; stroke-dashoffset: 0; stroke-linejoin: miter; stroke-miterlimit: 4; is-custom-font: none; font-file-url: none; fill: #63BBA4; fill-rule: nonzero; opacity: 1;" transform=" translate(-263.9106, -136.9547)" d="M 290.29 173.98 h -10.33 v 81.16 c 0 4.08 2.39 7.77 6.12 9.43 c 3.73 1.67 8.07 0.99 11.11 -1.74 l 131.9 -118.18 c 2.14 -1.92 3.39 -4.64 3.44 -7.52 c 0.05 -2.88 -1.1 -5.64 -3.18 -7.63 L 297.45 2.88 c -2.99 -2.87 -7.39 -3.68 -11.21 -2.05 c -3.81 1.63 -6.28 5.36 -6.28 9.5 v 70.35 h 10.33 V 70.35 c -40.63 -0.04 -73.79 12.17 -99.88 30.44 c -39.18 27.43 -62.64 67.74 -76.58 100.93 c -13.92 33.24 -18.31 59.65 -18.4 60.17 c -0.83 4.98 2.09 9.85 6.87 11.47 c 4.78 1.63 10.06 -0.46 12.44 -4.91 c 10.52 -19.69 21.65 -34.56 33.53 -45.9 c 17.83 -16.97 37.35 -26.3 60.63 -31.72 c 23.25 -5.39 50.21 -6.54 81.39 -6.52 V 173.98 h -10.33 H 290.29 v -10.33 c -21.1 0 -40.74 0.48 -59.2 2.57 c -27.66 3.11 -52.88 9.91 -75.48 24.38 c -22.61 14.45 -42.13 36.33 -59.09 68.12 l 9.11 4.87 l 10.19 1.69 l 0.01 -0.07 c 0.32 -2.06 8.4 -46.76 34.38 -89.9 c 12.97 -21.59 30.32 -42.71 53.11 -58.33 c 22.82 -15.61 51 -25.93 86.96 -25.97 c 2.72 0 5.38 -1.1 7.31 -3.03 c 1.92 -1.92 3.03 -4.59 3.03 -7.31 V 34.58 L 407 136.7 l -106.38 95.31 v -58.03 c 0 -2.72 -1.1 -5.38 -3.03 -7.31 c -1.92 -1.92 -4.59 -3.03 -7.31 -3.03 V 173.98 z" stroke-linecap="round"/>
</g>
		<g transform="matrix(1 0 0 1 -7.92 119.035)" id="Layer_1">
<path style="stroke: none; stroke-width: 1; stroke-dasharray: none; stroke-linecap: butt; stroke-dashoffset: 0; stroke-linejoin: miter; stroke-miterlimit: 4; is-custom-font: none; font-file-url: none; fill: #63BBA4; fill-rule: nonzero; opacity: 1;" transform=" translate(-248.08, -375.035)" d="M 221.71 338.02 v -81.16 L 89.8 375.04 l 131.9 126.62 v -70.35 c 154.32 0 184.66 -182.9 184.66 -182.9 C 362.68 330.19 305.46 338.02 221.71 338.02 z" stroke-linecap="round"/>
</g>
		<g transform="matrix(1 0 0 1 -7.9106 119.0453)" id="Layer_1">
<path style="stroke: none; stroke-width: 1; stroke-dasharray: none; stroke-linecap: butt; stroke-dashoffset: 0; stroke-linejoin: miter; stroke-miterlimit: 4; is-custom-font: none; font-file-url: none; fill: #63BBA4; fill-rule: nonzero; opacity: 1;" transform=" translate(-248.0894, -375.0453)" d="M 221.71 338.02 h 10.33 v -81.16 c 0 -4.08 -2.39 -7.77 -6.12 -9.43 c -3.73 -1.67 -8.07 -0.99 -11.11 1.74 L 82.91 367.35 c -2.14 1.92 -3.39 4.64 -3.44 7.52 c -0.05 2.88 1.1 5.64 3.18 7.63 l 131.9 126.62 c 2.99 2.87 7.39 3.68 11.21 2.05 c 3.81 -1.63 6.28 -5.36 6.28 -9.5 v -70.35 h -10.33 v 10.33 c 40.63 0.04 73.79 -12.17 99.88 -30.44 c 39.18 -27.43 62.64 -67.74 76.58 -100.93 c 13.92 -33.24 18.31 -59.65 18.4 -60.17 c 0.83 -4.98 -2.09 -9.85 -6.87 -11.47 c -4.78 -1.63 -10.06 0.46 -12.44 4.91 c -10.52 19.68 -21.65 34.56 -33.53 45.9 c -17.83 16.97 -37.35 26.3 -60.63 31.72 c -23.25 5.39 -50.21 6.54 -81.39 6.52 V 338.02 h 10.33 H 221.71 v 10.33 c 21.1 0 40.74 -0.48 59.2 -2.57 c 27.66 -3.11 52.88 -9.91 75.48 -24.38 c 22.61 -14.45 42.13 -36.33 59.09 -68.12 l -9.11 -4.87 l -10.19 -1.69 l -0.01 0.07 c -0.32 2.06 -8.4 46.76 -34.38 89.9 c -12.97 21.59 -30.32 42.71 -53.11 58.33 c -22.82 15.61 -51 25.93 -86.96 25.97 c -2.72 0 -5.38 1.1 -7.31 3.03 c -1.92 1.92 -3.03 4.59 -3.03 7.31 v 46.11 L 105 375.3 l 106.38 -95.31 l 0 58.03 c 0 2.72 1.1 5.38 3.03 7.31 c 1.92 1.92 4.59 3.03 7.31 3.03 V 338.02 z" stroke-linecap="round"/>
</g>
</g>
</g>
</svg>