<?xml version="1.0" encoding="UTF-8"?>
<svg version="1.1" xmlns="http://www.w3.org/2000/svg" width="512" height="512">
<path d="M0 0 C0.82862549 0.05075684 1.65725098 0.10151367 2.51098633 0.15380859 C30.49845235 2.22774407 56.56922084 15.8666309 75.125 36.875 C94.99382085 61.15211708 100.40722617 88.92548699 100.44384766 119.58203125 C100.45317149 121.39718052 100.46334369 123.2123256 100.47428894 125.02746582 C100.50132666 129.9023871 100.51665948 134.77727994 100.52971697 139.65225601 C100.54546373 144.76649447 100.57221643 149.88067577 100.5977478 154.99487305 C100.64433288 164.65579437 100.68117439 174.3167267 100.71442068 183.97770214 C100.75278624 194.98636363 100.80215807 205.99496742 100.85240483 217.00358009 C100.9554228 239.62734384 101.04478016 262.25114473 101.125 284.875 C101.52510284 284.47045593 101.92520569 284.06591187 102.33743286 283.64910889 C106.51700197 279.42516219 110.70369787 275.20837579 114.89453125 270.99560547 C116.45592746 269.42417541 118.01552088 267.85095188 119.57324219 266.27587891 C121.81750146 264.00725667 124.06824621 261.74524417 126.3203125 259.484375 C127.0111795 258.78318542 127.70204651 258.08199585 128.41384888 257.35955811 C134.88075559 250.89117176 139.93470332 246.7565266 149.4375 246.625 C156.08267565 246.691378 159.63111916 247.79676596 164.75 252.0625 C169.84126971 258.09163518 171.5610739 263.06913383 171.65625 270.96875 C170.21868005 278.83310326 165.44247418 284.14149475 159.91308594 289.60449219 C159.19383438 290.33075302 158.47458282 291.05701385 157.73353577 291.80528259 C155.36873274 294.18759649 152.98971055 296.55508824 150.609375 298.921875 C148.95215352 300.58179334 147.29552601 302.24230489 145.63946533 303.90338135 C142.17252116 307.37621128 138.69847502 310.8417328 135.21923828 314.30224609 C130.76935274 318.72934354 126.33766712 323.17415706 121.91115952 327.62461472 C118.4953858 331.05487085 115.07010693 334.4755079 111.64191437 337.89334869 C110.00438388 339.5282187 108.36979787 341.16604366 106.73827362 342.80690765 C104.45324428 345.10214199 102.15570004 347.38408746 99.85449219 349.66308594 C98.85510368 350.67461983 98.85510368 350.67461983 97.83552551 351.70658875 C92.91168902 356.54314044 87.91929699 360.22996951 81 361.40625 C72.63772807 361.31535574 67.40389545 360.00816677 61.3125 354.1875 C56.57804553 347.01818324 55.68377402 339.990142 55.75318909 331.54780579 C55.74745224 330.04425711 55.74745224 330.04425711 55.7415995 328.51033372 C55.7323574 325.17121433 55.74427921 321.83251428 55.75610352 318.4934082 C55.75363408 316.09117969 55.74979423 313.68895226 55.74468994 311.28672791 C55.73527997 305.44983938 55.739122 299.61306436 55.74791259 293.77617774 C55.75699167 286.96631632 55.74570954 280.15653376 55.73231315 273.34668496 C55.70856841 261.18530841 55.69518041 249.02394743 55.69116211 236.86254883 C55.69091724 236.13561945 55.69067237 235.40869008 55.69042008 234.65973254 C55.68787599 226.55580853 55.68730654 218.45188573 55.68835449 210.34796143 C55.68868752 207.41174317 55.68897291 204.47552491 55.68920898 201.53930664 C55.68927177 200.81478588 55.68933456 200.09026513 55.68939925 199.3437892 C55.69000556 187.2319299 55.67506194 175.12014229 55.64837593 163.00831288 C55.63403718 156.21826262 55.62778252 149.42838708 55.64142036 142.63833046 C55.65390247 136.24833043 55.64822319 129.85860294 55.62895203 123.46862221 C55.62524079 121.13145001 55.62829014 118.79425514 55.63882256 116.45710373 C55.72612978 95.68988311 53.25418814 78.7533614 38.328125 63.0859375 C37.60109375 62.35632813 36.8740625 61.62671875 36.125 60.875 C35.58359375 60.31039062 35.0421875 59.74578125 34.484375 59.1640625 C23.51495671 48.69325413 7.88393961 44.83109716 -6.7746582 43.78393555 C-13.39315204 43.19254185 -18.74590559 40.77975183 -23.1875 35.625 C-27.18940798 30.59586431 -28.16970367 25.65110153 -27.75 19.3125 C-26.67425953 12.19794369 -23.24273879 7.81501128 -17.94921875 3.13671875 C-12.23794416 -0.33737107 -6.43340819 -0.40718613 0 0 Z " fill="#31C4ED" transform="translate(263.875,75.125)"/>
<path d="M0 0 C5.81656507 6.12270008 6.29324603 11.63952817 6.25828552 19.71882629 C6.26196123 20.70411259 6.26563693 21.68939888 6.26942402 22.70454234 C6.27941284 26.00986784 6.2752513 29.31502538 6.27124023 32.62036133 C6.27562702 34.9891986 6.280929 37.35803433 6.28707886 39.72686768 C6.30008938 45.49810297 6.30428314 51.26929867 6.30531888 57.04054723 C6.30734163 63.77299617 6.32313418 70.50539152 6.34045542 77.23781594 C6.37130024 89.26489855 6.39546 101.29198307 6.41333008 113.3190918 C6.4149391 114.39863417 6.4149391 114.39863417 6.41658062 115.49998548 C6.42838161 123.51573572 6.43858838 131.53148673 6.44702148 139.54724121 C6.45009501 142.44710289 6.4531839 145.34696454 6.45629883 148.24682617 C6.45744684 149.32004596 6.45744684 149.32004596 6.45861804 150.41494695 C6.47174175 162.38430533 6.4964435 174.35360948 6.53004223 186.32292765 C6.55202855 194.34606353 6.55988275 202.36902987 6.55764949 210.39220107 C6.55932492 215.40357246 6.57342753 220.41485425 6.59086227 225.42619324 C6.59642762 227.736715 6.59697882 230.04725561 6.59192467 232.35777855 C6.35790209 255.59043726 6.35790209 255.59043726 13.625 277.375 C14.14332397 278.36294556 14.14332397 278.36294556 14.67211914 279.37084961 C22.48117021 293.65040726 35.64174841 303.83192827 50.9765625 309.00390625 C56.24458357 310.4425347 61.30204032 311.1669644 66.75 311.5 C74.53845719 312.01117559 79.48238606 313.0072172 84.875 318.875 C89.6841909 324.57892409 90.46614421 329.68569272 90.3046875 336.99609375 C89.75461149 342.41927905 88.08004755 346.08736071 84.05859375 349.78515625 C75.30119439 356.60721873 65.69200114 355.724359 55 355 C33.44605891 352.26245515 12.99868772 342.62300438 -3 328 C-4.18335938 326.92105469 -4.18335938 326.92105469 -5.390625 325.8203125 C-11.04987194 320.41130437 -15.66495785 314.50701399 -20 308 C-20.59683594 307.10925781 -21.19367188 306.21851563 -21.80859375 305.30078125 C-25.48904072 299.42354188 -28.26886868 293.32950382 -30.75 286.875 C-31.03174072 286.16666016 -31.31348145 285.45832031 -31.60375977 284.72851562 C-36.90400321 270.24023453 -37.44758907 254.84983448 -37.43237305 239.60693359 C-37.4414173 237.74222679 -37.4517509 235.87752588 -37.46325684 234.01283264 C-37.49054063 229.01197566 -37.50007188 224.01123233 -37.50611091 219.01031065 C-37.51557009 213.76127444 -37.54177881 208.51232069 -37.56611633 203.26333618 C-37.60957933 193.35102296 -37.63824981 183.43872593 -37.66143972 173.5263468 C-37.68860044 162.22984476 -37.73250471 150.9334265 -37.77772844 139.63698459 C-37.87028499 116.42470199 -37.94209762 93.21239312 -38 70 C-38.41849716 70.42960022 -38.83699432 70.85920044 -39.26817322 71.30181885 C-43.64974334 75.79451535 -48.04921832 80.2691074 -52.45922852 84.73388672 C-54.09990088 86.39961122 -55.73604634 88.06980775 -57.36743164 89.74462891 C-59.72129117 92.15954369 -62.09128384 94.55758928 -64.46484375 96.953125 C-65.54353981 98.0705307 -65.54353981 98.0705307 -66.64402771 99.21051025 C-72.37608663 104.94566146 -78.23200215 108.92823284 -86.5 109.5 C-93.27734469 109.13333737 -98.89270509 106.61472347 -103.4375 101.5625 C-106.8362244 97.38913756 -108.30271219 93.18022646 -108.4375 87.8125 C-108.47746094 86.95269531 -108.51742187 86.09289062 -108.55859375 85.20703125 C-106.40922685 72.86695973 -96.64190408 64.97830295 -88.13671875 56.61328125 C-86.65984983 55.14321408 -85.18402167 53.67210068 -83.70918274 52.19999695 C-79.83871255 48.34288147 -75.95305358 44.5014201 -72.06433105 40.66271973 C-68.90364797 37.53742409 -65.75413485 34.40100535 -62.60513592 31.26394367 C-58.82784858 27.50150934 -55.04544111 23.74424286 -51.26171875 19.98828125 C-50.19223275 18.92616141 -50.19223275 18.92616141 -49.10114098 17.84258461 C-47.06320911 15.82109858 -45.02184775 13.80314512 -42.97924805 11.78637695 C-42.389366 11.20075485 -41.79948395 10.61513275 -41.19172668 10.01176453 C-29.16359083 -1.83409128 -15.78063746 -12.739018 0 0 Z " fill="#2F7DEF" transform="translate(185,81)"/>
</svg>
