<svg width="530" height="468" viewBox="0 0 530 468" fill="none" xmlns="http://www.w3.org/2000/svg">
<g clip-path="url(#clip0_2001_4395)">
<path d="M403 86.0005C407.418 86.0005 411 82.4188 411 78.0005C411 73.5822 407.418 70.0005 403 70.0005C398.582 70.0005 395 73.5822 395 78.0005C395 82.4188 398.582 86.0005 403 86.0005Z" fill="#D80027"/>
<path d="M402.999 74.1743L403.862 76.8315H406.656L404.396 78.4737L405.259 81.1308L402.999 79.4886L400.739 81.1308L401.602 78.4737L399.342 76.8315H402.136L402.999 74.1743Z" fill="#FFDA44"/>
</g>
<path d="M404.5 234C404.5 296.054 388.849 352.209 363.57 392.835C338.288 433.468 303.424 458.5 265 458.5C226.576 458.5 191.712 433.468 166.43 392.835C141.151 352.209 125.5 296.054 125.5 234C125.5 171.946 141.151 115.791 166.43 75.1651C191.712 34.532 226.576 9.5 265 9.5C303.424 9.5 338.288 34.532 363.57 75.1651C388.849 115.791 404.5 171.946 404.5 234Z" stroke="url(#paint0_linear_2001_4395)" stroke-opacity="0.4"/>
<path d="M333.894 354.554C280.154 385.581 223.697 400.104 175.874 398.525C128.044 396.946 88.9337 379.27 69.7216 345.994C50.5095 312.717 54.7561 270.009 77.304 227.797C99.8479 185.592 140.654 143.96 194.394 112.933C248.134 81.9061 304.592 67.3829 352.414 68.9616C400.245 70.5406 439.355 88.2172 458.567 121.494C477.779 154.77 473.532 197.478 450.985 239.691C428.441 281.895 387.634 323.527 333.894 354.554Z" stroke="url(#paint1_linear_2001_4395)" stroke-opacity="0.4"/>
<path d="M334.606 113.446C388.346 144.473 429.152 186.105 451.696 228.309C474.244 270.522 478.491 313.23 459.278 346.506C440.066 379.783 400.956 397.459 353.126 399.038C305.303 400.617 248.846 386.094 195.106 355.067C141.366 324.04 100.559 282.408 78.0155 240.203C55.4675 197.991 51.2209 155.283 70.433 122.006C89.6451 88.7301 128.755 71.0535 176.586 69.4745C224.408 67.8958 280.866 82.419 334.606 113.446Z" stroke="url(#paint2_linear_2001_4395)" stroke-opacity="0.4"/>
<g clip-path="url(#clip1_2001_4395)">
<path d="M258.288 238.787C257.292 239.194 256.212 239.349 255.142 239.24C254.072 239.131 253.045 238.761 252.152 238.163C251.259 237.564 250.527 236.755 250.021 235.807C249.515 234.86 249.251 233.802 249.251 232.728C249.251 231.654 249.515 230.597 250.021 229.649C250.527 228.701 251.259 227.893 252.152 227.294C253.045 226.695 254.072 226.325 255.142 226.216C256.212 226.107 257.292 226.263 258.288 226.669C259.333 224.059 261.032 221.761 263.222 219.995C261.264 218.859 259.071 218.189 256.812 218.036C254.553 217.883 252.289 218.251 250.196 219.112C248.102 219.973 246.235 221.303 244.739 223C243.244 224.697 242.159 226.715 241.57 228.898C240.981 231.081 240.904 233.37 241.343 235.587C241.782 237.805 242.727 239.892 244.104 241.686C245.481 243.481 247.253 244.935 249.284 245.935C251.314 246.936 253.548 247.456 255.812 247.457C258.415 247.46 260.973 246.771 263.222 245.462C261.032 243.695 259.333 241.397 258.288 238.787Z" fill="black" fill-opacity="0.5"/>
<path d="M275.989 238.787C274.994 239.193 273.913 239.348 272.844 239.238C271.774 239.129 270.747 238.758 269.855 238.16C268.962 237.561 268.231 236.752 267.725 235.804C267.219 234.857 266.955 233.799 266.955 232.726C266.955 231.652 267.219 230.595 267.725 229.647C268.231 228.699 268.962 227.89 269.855 227.292C270.747 226.693 271.774 226.322 272.844 226.213C273.913 226.103 274.994 226.258 275.989 226.664C277.034 224.055 278.732 221.758 280.921 219.993C278.964 218.858 276.77 218.188 274.512 218.036C272.253 217.883 269.99 218.251 267.897 219.112C265.804 219.974 263.937 221.304 262.442 223.001C260.946 224.698 259.862 226.716 259.273 228.898C258.685 231.081 258.607 233.369 259.046 235.587C259.485 237.804 260.43 239.891 261.806 241.685C263.183 243.479 264.955 244.933 266.984 245.934C269.014 246.935 271.247 247.456 273.511 247.457C276.115 247.46 278.672 246.771 280.921 245.462C278.732 243.696 277.033 241.397 275.989 238.787Z" fill="black" fill-opacity="0.5"/>
<path d="M275.99 238.788C274.795 239.277 273.481 239.402 272.215 239.147C270.948 238.893 269.786 238.27 268.873 237.357L281.54 250H290.812L289.842 249.032C286.808 248.777 283.905 247.683 281.458 245.874C279.012 244.065 277.118 241.611 275.99 238.788Z" fill="black"/>
<path d="M286.578 237.357C285.353 236.128 284.667 234.465 284.669 232.731C284.671 230.998 285.362 229.336 286.59 228.111C287.817 226.885 289.482 226.196 291.218 226.194C292.954 226.192 294.62 226.877 295.85 228.1L305.198 237.433C306.353 234.009 306.207 230.28 304.788 226.956C303.369 223.631 300.775 220.944 297.501 219.405C294.227 217.866 290.5 217.582 287.03 218.608C283.559 219.634 280.588 221.897 278.68 224.968C276.773 228.039 276.062 231.703 276.684 235.263C277.306 238.822 279.217 242.03 282.053 244.274C284.889 246.519 288.453 247.644 292.066 247.436C295.679 247.228 299.09 245.702 301.649 243.146L295.854 237.361C295.245 237.969 294.522 238.451 293.726 238.78C292.93 239.109 292.077 239.278 291.215 239.278C290.354 239.278 289.501 239.108 288.705 238.778C287.909 238.448 287.186 237.965 286.578 237.357Z" fill="black" fill-opacity="0.5"/>
<path d="M295.85 237.357C295.242 237.965 294.519 238.447 293.723 238.776C292.928 239.105 292.075 239.274 291.214 239.274C290.353 239.274 289.501 239.105 288.705 238.776C287.91 238.447 287.187 237.965 286.578 237.357L299.242 250H308.513L295.85 237.357Z" fill="black"/>
<path d="M239.727 235.878C238.664 235.685 237.586 235.588 236.506 235.586C234.084 235.583 231.686 236.069 229.457 237.015C227.227 237.961 225.213 239.347 223.533 241.09L229.907 247.453C230.75 246.548 231.771 245.826 232.906 245.332C234.041 244.838 235.265 244.583 236.504 244.583C237.742 244.583 238.967 244.838 240.102 245.332C241.237 245.826 242.258 246.548 243.101 247.453L245.287 245.271C242.411 242.868 240.448 239.552 239.727 235.878Z" fill="black"/>
<path d="M239.42 232.728C239.418 230.335 239.942 227.971 240.957 225.803C241.971 223.635 243.45 221.717 245.29 220.183L243.104 218L223.533 241.09L229.907 247.454L239.723 235.871C239.521 234.835 239.42 233.783 239.42 232.728Z" fill="black" fill-opacity="0.5"/>
<path d="M245.29 220.183L243.104 218C242.261 218.906 241.241 219.629 240.105 220.123C238.97 220.617 237.745 220.871 236.506 220.87C235.267 220.872 234.042 220.618 232.906 220.124C231.77 219.63 230.749 218.907 229.907 218L223.533 224.364C225.213 226.106 227.227 227.492 229.457 228.438C231.686 229.384 234.084 229.87 236.506 229.867C237.586 229.866 238.664 229.768 239.727 229.574C240.449 225.9 242.413 222.585 245.29 220.183Z" fill="black"/>
</g>
<g clip-path="url(#clip2_2001_4395)">
<path d="M197 439C201.418 439 205 435.418 205 431C205 426.582 201.418 423 197 423C192.582 423 189 426.582 189 431C189 435.418 192.582 439 197 439Z" fill="#F0F0F0"/>
<path d="M196.652 431H205C205 430.278 204.904 429.578 204.725 428.913H196.652V431Z" fill="#D80027"/>
<path d="M196.652 426.826H203.826C203.336 426.027 202.71 425.321 201.98 424.739H196.652V426.826Z" fill="#D80027"/>
<path d="M196.999 439C198.882 439 200.613 438.35 201.979 437.261H192.02C193.386 438.35 195.117 439 196.999 439Z" fill="#D80027"/>
<path d="M190.174 435.174H203.826C204.219 434.532 204.524 433.831 204.724 433.087H189.275C189.476 433.831 189.781 434.532 190.174 435.174Z" fill="#D80027"/>
<path d="M192.706 424.249H193.435L192.757 424.742L193.016 425.539L192.338 425.046L191.659 425.539L191.883 424.85C191.286 425.348 190.763 425.931 190.332 426.58H190.565L190.134 426.893C190.066 427.006 190.002 427.119 189.94 427.235L190.146 427.87L189.762 427.59C189.666 427.793 189.579 428 189.5 428.211L189.727 428.91H190.565L189.887 429.403L190.146 430.2L189.468 429.707L189.062 430.002C189.021 430.329 189 430.662 189 431H197C197 426.582 197 426.061 197 423C195.42 423 193.946 423.458 192.706 424.249ZM193.016 430.2L192.338 429.707L191.659 430.2L191.919 429.403L191.24 428.91H192.079L192.338 428.113L192.597 428.91H193.435L192.757 429.403L193.016 430.2ZM192.757 427.072L193.016 427.87L192.338 427.377L191.659 427.87L191.919 427.072L191.24 426.58H192.079L192.338 425.783L192.597 426.58H193.435L192.757 427.072ZM195.885 430.2L195.207 429.707L194.529 430.2L194.788 429.403L194.11 428.91H194.948L195.207 428.113L195.466 428.91H196.304L195.626 429.403L195.885 430.2ZM195.626 427.072L195.885 427.87L195.207 427.377L194.529 427.87L194.788 427.072L194.11 426.58H194.948L195.207 425.783L195.466 426.58H196.304L195.626 427.072ZM195.626 424.742L195.885 425.539L195.207 425.046L194.529 425.539L194.788 424.742L194.11 424.249H194.948L195.207 423.452L195.466 424.249H196.304L195.626 424.742Z" fill="#0052B4"/>
</g>
<g clip-path="url(#clip3_2001_4395)">
<path d="M469 204C473.418 204 477 200.418 477 196C477 191.582 473.418 188 469 188C464.582 188 461 191.582 461 196C461 200.418 464.582 204 469 204Z" fill="#F0F0F0"/>
<path d="M476.502 193.217H461.498C461.176 194.084 461 195.021 461 196C461 196.978 461.176 197.916 461.498 198.782H476.502C476.824 197.916 477 196.978 477 196C477 195.021 476.824 194.084 476.502 193.217Z" fill="#0052B4"/>
<path d="M469 188C466.575 188 464.403 189.079 462.936 190.783H475.064C473.597 189.079 471.425 188 469 188Z" fill="#D80027"/>
<path d="M475.064 201.217H462.936C464.403 202.921 466.575 204 469 204C471.425 204 473.597 202.921 475.064 201.217Z" fill="#D80027"/>
</g>
<rect x="188" y="344" width="32" height="32" rx="16" fill="#A0AFC0"/>
<g clip-path="url(#clip4_2001_4395)">
<path d="M197.125 358.75H204.625" stroke="black" stroke-width="2" stroke-linecap="round" stroke-linejoin="round"/>
<path d="M197.125 361.25H203.375" stroke="black" stroke-width="2" stroke-linecap="round" stroke-linejoin="round"/>
<path d="M208.375 365.443C207.566 366.167 206.564 366.641 205.491 366.808C204.418 366.975 203.32 366.828 202.328 366.385C201.337 365.942 200.495 365.221 199.905 364.31C199.314 363.398 199 362.336 199 361.25V358.75C199 357.664 199.314 356.601 199.905 355.69C200.495 354.779 201.337 354.058 202.328 353.615C203.32 353.171 204.418 353.024 205.491 353.192C206.564 353.359 207.566 353.833 208.375 354.557" stroke="black" stroke-width="2" stroke-linecap="round" stroke-linejoin="round"/>
</g>
<rect x="203" y="8.00049" width="32" height="32" rx="16" fill="#A0AFC0"/>
<g clip-path="url(#clip5_2001_4395)">
<path d="M213.375 24.0005H219.625" stroke="black" stroke-width="2" stroke-linecap="round" stroke-linejoin="round"/>
<path d="M223.375 30.2507H213.688C214.433 30.2507 215.149 29.9544 215.676 29.4269C216.204 28.8995 216.5 28.1841 216.5 27.4382V20.5632C216.5 19.9112 216.685 19.2727 217.034 18.722C217.383 18.1714 217.882 17.7314 218.471 17.4533C219.061 17.1753 219.718 17.0706 220.365 17.1516C221.012 17.2327 221.622 17.496 222.125 17.9109" stroke="black" stroke-width="2" stroke-linecap="round" stroke-linejoin="round"/>
</g>
<rect x="432" y="345" width="32" height="32" rx="16" fill="#A0AFC0"/>
<g clip-path="url(#clip6_2001_4395)">
<path d="M448 352.875V354.75" stroke="black" stroke-width="2" stroke-linecap="round" stroke-linejoin="round"/>
<path d="M448 367.25V369.125" stroke="black" stroke-width="2" stroke-linecap="round" stroke-linejoin="round"/>
<path d="M452.375 357.875C452.375 357.465 452.294 357.059 452.137 356.68C451.98 356.3 451.75 355.956 451.46 355.666C451.17 355.376 450.825 355.145 450.446 354.988C450.067 354.831 449.66 354.75 449.25 354.75H446.75C445.921 354.75 445.126 355.08 444.54 355.666C443.954 356.252 443.625 357.047 443.625 357.875C443.625 358.704 443.954 359.499 444.54 360.085C445.126 360.671 445.921 361 446.75 361H449.875C450.704 361 451.499 361.33 452.085 361.916C452.671 362.502 453 363.297 453 364.125C453 364.954 452.671 365.749 452.085 366.335C451.499 366.921 450.704 367.25 449.875 367.25H446.125C445.296 367.25 444.501 366.921 443.915 366.335C443.329 365.749 443 364.954 443 364.125" stroke="black" stroke-width="2" stroke-linecap="round" stroke-linejoin="round"/>
</g>
<g clip-path="url(#clip7_2001_4395)">
<path d="M98 353C106.837 353 114 345.837 114 337C114 328.164 106.837 321 98 321C89.1634 321 82 328.164 82 337C82 345.837 89.1634 353 98 353Z" fill="#F0F0F0"/>
<path d="M85.3071 327.259C84.0503 328.894 83.1026 330.779 82.5508 332.827H90.8744L85.3071 327.259Z" fill="#0052B4"/>
<path d="M113.448 332.827C112.897 330.779 111.949 328.894 110.692 327.259L105.125 332.827H113.448Z" fill="#0052B4"/>
<path d="M82.5508 341.175C83.1027 343.222 84.0503 345.107 85.3071 346.742L90.8742 341.175H82.5508Z" fill="#0052B4"/>
<path d="M107.741 324.308C106.106 323.051 104.221 322.104 102.174 321.552V329.875L107.741 324.308Z" fill="#0052B4"/>
<path d="M88.2578 349.693C89.893 350.95 91.7777 351.898 93.8251 352.449V344.126L88.2578 349.693Z" fill="#0052B4"/>
<path d="M93.825 321.552C91.7776 322.104 89.8929 323.051 88.2578 324.308L93.825 329.875V321.552Z" fill="#0052B4"/>
<path d="M102.174 352.449C104.221 351.898 106.106 350.95 107.741 349.693L102.174 344.126V352.449Z" fill="#0052B4"/>
<path d="M105.125 341.175L110.692 346.742C111.949 345.107 112.897 343.222 113.448 341.175H105.125Z" fill="#0052B4"/>
<path d="M113.865 334.914H100.087H100.087V321.136C99.4038 321.047 98.7073 321 98 321C97.2926 321 96.5962 321.047 95.9131 321.136V334.913V334.913H82.1354C82.0465 335.597 82 336.293 82 337C82 337.708 82.0465 338.404 82.1354 339.087H95.9129H95.913V352.865C96.5962 352.954 97.2926 353 98 353C98.7073 353 99.4038 352.954 100.087 352.865V339.088V339.087H113.865C113.954 338.404 114 337.708 114 337C114 336.293 113.954 335.597 113.865 334.914Z" fill="#D80027"/>
<path d="M102.174 341.174L109.314 348.314C109.642 347.986 109.955 347.643 110.254 347.287L104.141 341.174H102.174V341.174Z" fill="#D80027"/>
<path d="M93.8254 341.174H93.8252L86.6855 348.314C87.0138 348.642 87.357 348.956 87.7127 349.255L93.8254 343.142V341.174Z" fill="#D80027"/>
<path d="M93.8263 332.826V332.826L86.6866 325.687C86.3582 326.015 86.045 326.358 85.7461 326.714L91.8588 332.826H93.8263V332.826Z" fill="#D80027"/>
<path d="M102.174 332.827L109.314 325.687C108.985 325.359 108.642 325.045 108.286 324.747L102.174 330.859V332.827Z" fill="#D80027"/>
</g>
<g clip-path="url(#clip8_2001_4395)">
<path d="M75 123C79.4183 123 83 119.419 83 115C83 110.582 79.4183 107 75 107C70.5817 107 67 110.582 67 115C67 119.419 70.5817 123 75 123Z" fill="#FFF62D"/>
<path d="M67 115C67 110.582 70.5817 107 75 107C79.4183 107 83 110.582 83 115" fill="#338AF3"/>
</g>
<g clip-path="url(#clip9_2001_4395)">
<path d="M113.996 195.566C116.257 201.658 122.121 206 129.001 206C135.88 206 141.745 201.658 144.006 195.566L129.001 194.174L113.996 195.566Z" fill="#FFDA44"/>
<path d="M129.001 174C122.121 174 116.257 178.342 113.996 184.435L129.001 185.827L144.006 184.435C141.745 178.342 135.88 174 129.001 174Z" fill="black"/>
<path d="M113.995 184.435C113.352 186.168 113 188.043 113 190C113 191.957 113.352 193.832 113.995 195.565H144.005C144.648 193.832 145 191.957 145 190C145 188.043 144.648 186.168 144.005 184.435H113.995Z" fill="#D80027"/>
</g>
<defs>
<linearGradient id="paint0_linear_2001_4395" x1="133.992" y1="294.862" x2="359.879" y2="219.497" gradientUnits="userSpaceOnUse">
<stop/>
<stop offset="1" stop-opacity="0"/>
</linearGradient>
<linearGradient id="paint1_linear_2001_4395" x1="344.145" y1="345.744" x2="226.689" y2="82.2842" gradientUnits="userSpaceOnUse">
<stop/>
<stop offset="1" stop-opacity="0"/>
</linearGradient>
<linearGradient id="paint2_linear_2001_4395" x1="252.059" y1="378.144" x2="368.519" y2="123.729" gradientUnits="userSpaceOnUse">
<stop/>
<stop offset="1" stop-opacity="0"/>
</linearGradient>
<clipPath id="clip0_2001_4395">
<rect x="395" y="70.0005" width="16" height="16" rx="8" fill="white"/>
</clipPath>
<clipPath id="clip1_2001_4395">
<rect width="86" height="32" fill="white" transform="translate(223 218)"/>
</clipPath>
<clipPath id="clip2_2001_4395">
<rect width="16" height="16" fill="white" transform="translate(189 423)"/>
</clipPath>
<clipPath id="clip3_2001_4395">
<rect width="16" height="16" fill="white" transform="translate(461 188)"/>
</clipPath>
<clipPath id="clip4_2001_4395">
<rect width="20" height="20" fill="white" transform="translate(194 350)"/>
</clipPath>
<clipPath id="clip5_2001_4395">
<rect width="20" height="20" fill="white" transform="translate(209 14.0005)"/>
</clipPath>
<clipPath id="clip6_2001_4395">
<rect width="20" height="20" fill="white" transform="translate(438 351)"/>
</clipPath>
<clipPath id="clip7_2001_4395">
<rect x="82" y="321" width="32" height="32" rx="16" fill="white"/>
</clipPath>
<clipPath id="clip8_2001_4395">
<rect x="67" y="107" width="16" height="16" rx="8" fill="white"/>
</clipPath>
<clipPath id="clip9_2001_4395">
<rect x="113" y="174" width="32" height="32" rx="16" fill="white"/>
</clipPath>
</defs>
</svg>
