<svg width="24" height="24" viewBox="0 0 24 24" fill="none" xmlns="http://www.w3.org/2000/svg">
<g opacity="0.5">
<path d="M5.38795 8.43048C5.68079 8.13753 6.15566 8.13744 6.44861 8.43028C6.74156 8.72311 6.74166 9.19798 6.44882 9.49094L5.38795 8.43048ZM2.87988 12.0004L2.34945 12.5306C2.05669 12.2378 2.05669 11.7631 2.34945 11.4702L2.87988 12.0004ZM6.44882 14.5099C6.74166 14.8028 6.74156 15.2777 6.44861 15.5706C6.15566 15.8634 5.68079 15.8633 5.38795 15.5703L6.44882 14.5099ZM13.4972 11.2504C13.9114 11.2504 14.2472 11.5862 14.2472 12.0004C14.2472 12.4146 13.9114 12.7504 13.4972 12.7504L13.4972 11.2504ZM4.37719 12.7504C3.96298 12.7504 3.62719 12.4146 3.62719 12.0004C3.62719 11.5862 3.96298 11.2504 4.37719 11.2504L4.37719 12.7504ZM11.7692 21.7744C11.355 21.7744 11.0192 21.4386 11.0192 21.0244C11.0192 20.6102 11.355 20.2744 11.7692 20.2744V21.7744ZM11.7692 3.63041C11.355 3.63041 11.0192 3.29463 11.0192 2.88041C11.0192 2.4662 11.355 2.13041 11.7692 2.13041V3.63041ZM6.44882 9.49094L3.41032 12.5306L2.34945 11.4702L5.38795 8.43048L6.44882 9.49094ZM3.41032 11.4702L6.44882 14.5099L5.38795 15.5703L2.34945 12.5306L3.41032 11.4702ZM13.4972 12.7504L4.37719 12.7504L4.37719 11.2504L13.4972 11.2504L13.4972 12.7504ZM11.7692 20.2744L18.5852 20.2744V21.7744L11.7692 21.7744V20.2744ZM18.5852 20.2744C20.3978 20.2744 21.8672 18.805 21.8672 16.9924H23.3672C23.3672 19.6334 21.2262 21.7744 18.5852 21.7744V20.2744ZM21.8672 16.9924V6.91241H23.3672V16.9924H21.8672ZM21.8672 6.91241C21.8672 5.09981 20.3978 3.63041 18.5852 3.63041V2.13041C21.2262 2.13041 23.3672 4.27139 23.3672 6.91241H21.8672ZM18.5852 3.63041L11.7692 3.63041V2.13041L18.5852 2.13041V3.63041Z" fill="black"/>
</g>
</svg>
