<svg width="400" height="68" viewBox="0 0 400 68" fill="none" xmlns="http://www.w3.org/2000/svg">
<path d="M1 66.677C1 66.677 4.19991 57.8536 11.5667 57.8536C18.9334 57.8536 18.1152 36.0054 22.1333 36.0054C26.1515 36.0054 26.1515 39.3666 32.7 39.3666C39.2485 39.3666 38.2489 36.0054 43.2667 36.0054C48.2844 36.0054 48.2844 46.0892 53.8333 46.0892C59.3823 46.0892 59.1372 29.2828 64.4 29.2828C69.6628 29.2828 69.6961 36.0054 75 36.0054C80.3039 36.0054 80.0439 57.8536 85.5 57.8536C90.9561 57.8536 90.9894 46.0892 96.1 46.0892C101.211 46.0892 101.312 39.3666 106.75 39.3666C112.188 39.3666 112.104 29.2828 117.233 29.2828C122.362 29.2828 121.956 39.2616 127.75 39.2616C133.544 39.2616 133.478 15.8377 138.25 15.8377C143.022 15.8377 142.66 26.7619 149 26.7619C155.34 26.7619 155.274 46.0892 159.5 46.0892C163.726 46.0892 164.505 29.2828 170.067 29.2828C175.628 29.2828 175.745 15.4176 180.75 15.4176C185.755 15.4176 185.719 29.2828 191.25 29.2828C196.781 29.2828 196.714 27.182 201.75 27.182C206.786 27.182 207.425 39.3666 212.25 39.3666C217.075 39.3666 217.158 46.0892 222.9 46.0892C228.642 46.0892 228.178 29.2828 233.5 29.2828C238.822 29.2828 238.755 21.72 244 21.72C249.245 21.72 249.075 9.11518 254.5 9.11518C259.925 9.11518 260.108 5.75391 265.25 5.75391C270.392 5.75391 269.784 21.72 275.75 21.72C281.716 21.72 281.649 17.9385 286.25 17.9385C290.851 17.9385 291.331 30.9635 296.817 30.9635C302.303 30.9635 302.419 50.7109 307.5 50.7109C312.581 50.7109 313.523 45.9183 318 46.0892C322.123 46.2465 323.55 51.9038 327.5 50.7109C330.045 49.9421 330.754 48.0947 332.5 46.0892C337.219 40.6685 333.649 32.6475 340 29.2828C345.723 26.2506 351.218 34.7123 356.5 30.9635C360.943 27.81 357.714 21.8566 361.5 17.9385C367.032 12.214 374.196 17.1665 381.5 14C389.311 10.6135 399 1 399 1" stroke="black" stroke-width="1.5" stroke-linecap="round" stroke-linejoin="round"/>
</svg>
