<svg width="18" height="19" viewBox="0 0 18 19" fill="none" xmlns="http://www.w3.org/2000/svg">
<g filter="url(#filter0_d_2305_1605)">
<path d="M4.82376 13.5283C4.55147 13.1756 4.2111 12.4603 3.61788 11.5687C3.27751 11.0788 2.44118 10.1479 2.18833 9.6678C2.00606 9.37604 1.95317 9.02077 2.04246 8.68797C2.1951 8.0552 2.79085 7.63545 3.43311 7.70814C3.92986 7.80868 4.38636 8.05399 4.74597 8.41362C4.99704 8.65188 5.22799 8.9108 5.43643 9.18768C5.59203 9.38365 5.63093 9.46203 5.80597 9.6874C5.98102 9.91276 6.09772 10.1381 6.01019 9.80498C5.94212 9.31506 5.82542 8.492 5.6601 7.75713C5.53368 7.19863 5.5045 7.11044 5.3878 6.68911C5.27111 6.26779 5.20303 5.91505 5.07661 5.43493C4.96105 4.96321 4.87016 4.4857 4.80431 4.00438C4.68174 3.38875 4.77091 2.74942 5.05716 2.19169C5.39694 1.86969 5.89537 1.7847 6.32139 1.97613C6.74986 2.2949 7.06933 2.74005 7.23552 3.24991C7.49038 3.87738 7.66046 4.53649 7.74122 5.20957C7.89681 6.1894 8.19828 7.61995 8.20801 7.9139C8.20801 7.55136 8.13993 6.7871 8.20801 6.44416C8.27545 6.08664 8.52208 5.78993 8.85957 5.66029C9.14919 5.57076 9.45555 5.55063 9.75426 5.6015C10.0558 5.66501 10.3228 5.83974 10.5031 6.09142C10.7284 6.66304 10.8534 7.26976 10.8726 7.88451C10.8987 7.34617 10.9901 6.81309 11.1449 6.29718C11.3074 6.06648 11.5447 5.90014 11.8159 5.82686C12.1374 5.76764 12.4669 5.76764 12.7884 5.82686C13.052 5.91567 13.2827 6.0831 13.4497 6.30698C13.6556 6.82663 13.7803 7.37533 13.8192 7.9335C13.8192 8.07068 13.8873 7.55136 14.1013 7.20842C14.2124 6.87587 14.4913 6.62833 14.8327 6.55907C15.1741 6.4898 15.5263 6.60932 15.7566 6.87261C15.9868 7.1359 16.0602 7.50296 15.949 7.83552C15.949 8.47241 15.949 8.44301 15.949 8.87414C15.949 9.30526 15.949 9.6874 15.949 10.0499C15.9135 10.6233 15.8355 11.1932 15.7156 11.7548C15.5463 12.2517 15.3108 12.7231 15.0154 13.156C14.5432 13.6851 14.153 14.283 13.8581 14.9295C13.785 15.2507 13.7523 15.5799 13.7609 15.9093C13.7599 16.2137 13.7992 16.5168 13.8776 16.8108C13.48 16.8531 13.079 16.8531 12.6814 16.8108C12.3022 16.752 11.8354 15.9877 11.709 15.7525C11.6464 15.6263 11.5184 15.5465 11.3783 15.5465C11.2382 15.5465 11.1102 15.6263 11.0477 15.7525C10.8337 16.1249 10.3572 16.801 10.0266 16.8402C9.37499 16.9185 8.03296 16.8402 6.97295 16.8402C6.97295 16.8402 7.148 15.8603 6.74928 15.5076C6.35056 15.1549 5.94212 14.7433 5.64065 14.469L4.82376 13.5283Z" fill="white"/>
<path fill-rule="evenodd" clip-rule="evenodd" d="M4.82376 12.7783C4.55147 12.4256 4.2111 11.7103 3.61788 10.8187C3.27751 10.3288 2.44118 9.39792 2.18833 8.9178C2.00606 8.62604 1.95317 8.27077 2.04246 7.93797C2.1951 7.3052 2.79085 6.88545 3.43311 6.95814C3.92986 7.05868 4.38636 7.30399 4.74597 7.66362C4.99704 7.90188 5.22799 8.1608 5.43643 8.43768C5.59203 8.63365 5.63093 8.71203 5.80597 8.9374C5.98102 9.16276 6.09772 9.38812 6.01019 9.05498C5.94212 8.56506 5.82542 7.742 5.6601 7.00713C5.53368 6.44863 5.5045 6.36044 5.3878 5.93911C5.27111 5.51779 5.20303 5.16505 5.07661 4.68493C4.96105 4.21321 4.87016 3.7357 4.80431 3.25438C4.68174 2.63875 4.77091 1.99942 5.05716 1.44169C5.39694 1.11969 5.89537 1.0347 6.32139 1.22613C6.74986 1.5449 7.06933 1.99005 7.23552 2.49991C7.49038 3.12738 7.66046 3.78649 7.74122 4.45957C7.89681 5.4394 8.19828 6.86995 8.20801 7.1639C8.20801 6.80136 8.13993 6.0371 8.20801 5.69416C8.27545 5.33664 8.52208 5.03993 8.85957 4.91029C9.14919 4.82076 9.45555 4.80063 9.75426 4.8515C10.0558 4.91501 10.3228 5.08974 10.5031 5.34142C10.7284 5.91304 10.8534 6.51976 10.8726 7.13451C10.8987 6.59617 10.9901 6.06309 11.1449 5.54718C11.3074 5.31648 11.5447 5.15014 11.8159 5.07686C12.1374 5.01764 12.4669 5.01764 12.7884 5.07686C13.052 5.16567 13.2827 5.3331 13.4497 5.55698C13.6556 6.07663 13.7803 6.62533 13.8192 7.1835C13.8192 7.32068 13.8873 6.80136 14.1013 6.45842C14.2124 6.12587 14.4913 5.87833 14.8327 5.80907C15.1741 5.7398 15.5263 5.85932 15.7566 6.12261C15.9868 6.3859 16.0602 6.75296 15.949 7.08552C15.949 7.72241 15.949 7.69301 15.949 8.12414C15.949 8.55526 15.949 8.9374 15.949 9.29993C15.9135 9.87331 15.8355 10.4432 15.7156 11.0048C15.5463 11.5017 15.3108 11.9731 15.0154 12.406C14.5432 12.9351 14.153 13.533 13.8581 14.1795C13.785 14.5007 13.7523 14.8299 13.7609 15.1593C13.7599 15.4637 13.7992 15.7668 13.8776 16.0608C13.48 16.1031 13.079 16.1031 12.6814 16.0608C12.3022 16.002 11.8354 15.2377 11.7089 15.0025C11.6464 14.8763 11.5184 14.7965 11.3783 14.7965C11.2382 14.7965 11.1102 14.8763 11.0477 15.0025C10.8337 15.3749 10.3572 16.051 10.0266 16.0902C9.37499 16.1685 8.03296 16.0902 6.97295 16.0902C6.97295 16.0902 7.148 15.1103 6.74928 14.7576C6.35056 14.4049 5.94212 13.9933 5.64065 13.719L4.82376 12.7783Z" stroke="black" stroke-linecap="round" stroke-linejoin="round"/>
<path d="M13 13.6437V10.3563C13 10.1595 12.7761 10 12.5 10C12.2239 10 12 10.1595 12 10.3563V13.6437C12 13.8405 12.2239 14 12.5 14C12.7761 14 13 13.8405 13 13.6437Z" fill="black"/>
<path d="M11 13.6425L10.974 10.3534C10.9725 10.1571 10.7532 9.99887 10.4842 10C10.2152 10.0011 9.99846 10.1612 10 10.3575L10.026 13.6466C10.0275 13.8429 10.2468 14.0011 10.5158 14C10.7848 13.9989 11.0015 13.8388 11 13.6425Z" fill="black"/>
<path d="M8.00001 10.3609L8.02598 13.6432C8.02755 13.8414 8.24686 14.0011 8.51583 14C8.78479 13.9988 9.00156 13.8372 8.99999 13.6391L8.97402 10.3568C8.97245 10.1586 8.75314 9.99885 8.48417 10C8.21521 10.0012 7.99844 10.1628 8.00001 10.3609Z" fill="black"/>
</g>
<defs>
<filter id="filter0_d_2305_1605" x="0.7" y="0.625" width="16.6" height="18.05" filterUnits="userSpaceOnUse" color-interpolation-filters="sRGB">
<feFlood flood-opacity="0" result="BackgroundImageFix"/>
<feColorMatrix in="SourceAlpha" type="matrix" values="0 0 0 0 0 0 0 0 0 0 0 0 0 0 0 0 0 0 127 0" result="hardAlpha"/>
<feOffset dy="1"/>
<feGaussianBlur stdDeviation="0.4"/>
<feColorMatrix type="matrix" values="0 0 0 0 0 0 0 0 0 0 0 0 0 0 0 0 0 0 0.5 0"/>
<feBlend mode="normal" in2="BackgroundImageFix" result="effect1_dropShadow_2305_1605"/>
<feBlend mode="normal" in="SourceGraphic" in2="effect1_dropShadow_2305_1605" result="shape"/>
</filter>
</defs>
</svg>
