<svg width="25px" height="25px" viewBox="-4.2 -4.2 29.40 29.40" xmlns="http://www.w3.org/2000/svg" fill="#f8f7f7" stroke="#f8f7f7" stroke-width="1.05"><g id="SVGRepo_bgCarrier" stroke-width="0"></g><g id="SVGRepo_tracerCarrier" stroke-linecap="round" stroke-linejoin="round" stroke="#CCCCCC" stroke-width="2.73"> <g fill="none" fill-rule="evenodd" stroke="#f9f1f1" stroke-linecap="round" stroke-linejoin="round" transform="matrix(0 1 1 0 2.5 2.5)"> <path d="m3.98652376 1.07807068c-2.38377179 1.38514556-3.98652376 3.96636605-3.98652376 6.92192932 0 4.418278 3.581722 8 8 8s8-3.581722 8-8-3.581722-8-8-8"></path> <path d="m4 1v4h-4" transform="matrix(1 0 0 -1 0 6)"></path> </g> </g><g id="SVGRepo_iconCarrier"> <g fill="none" fill-rule="evenodd" stroke="#f9f1f1" stroke-linecap="round" stroke-linejoin="round" transform="matrix(0 1 1 0 2.5 2.5)"> <path d="m3.98652376 1.07807068c-2.38377179 1.38514556-3.98652376 3.96636605-3.98652376 6.92192932 0 4.418278 3.581722 8 8 8s8-3.581722 8-8-3.581722-8-8-8"></path> <path d="m4 1v4h-4" transform="matrix(1 0 0 -1 0 6)"></path> </g> </g></svg>