<svg width="24" height="24" viewBox="0 0 24 24" fill="none" xmlns="http://www.w3.org/2000/svg">
<path d="M17.8101 7.16C16.4301 7.11 15.3301 5.98 15.3301 4.58C15.3301 3.15 16.4801 2 17.9101 2C19.3401 2 20.4901 3.16 20.4901 4.58C20.4801 5.98 19.3801 7.11 18.0001 7.16C17.9401 7.15 17.8701 7.15 17.8101 7.16Z" stroke="black" stroke-width="1.5" stroke-linecap="round" stroke-linejoin="round"/>
<path d="M16.9704 14.4402C18.3404 14.6702 19.8504 14.4302 20.9104 13.7202C22.3204 12.7802 22.3204 11.2402 20.9104 10.3002C19.8404 9.59016 18.3104 9.35016 16.9404 9.59016" stroke="black" stroke-width="1.5" stroke-linecap="round" stroke-linejoin="round"/>
<path d="M6.15949 7.16C7.53949 7.11 8.63949 5.98 8.63949 4.58C8.63949 3.15 7.48949 2 6.05949 2C4.62949 2 3.47949 3.16 3.47949 4.58C3.48949 5.98 4.58949 7.11 5.96949 7.16C6.02949 7.15 6.09949 7.15 6.15949 7.16Z" stroke="black" stroke-width="1.5" stroke-linecap="round" stroke-linejoin="round"/>
<path d="M6.99945 14.4402C5.62945 14.6702 4.11945 14.4302 3.05945 13.7202C1.64945 12.7802 1.64945 11.2402 3.05945 10.3002C4.12945 9.59016 5.65945 9.35016 7.02945 9.59016" stroke="black" stroke-width="1.5" stroke-linecap="round" stroke-linejoin="round"/>
<path d="M11.8101 14.6297C10.4301 14.5797 9.33008 13.4497 9.33008 12.0497C9.33008 10.6197 10.4801 9.46973 11.9101 9.46973C13.3401 9.46973 14.4901 10.6297 14.4901 12.0497C14.4801 13.4497 13.3801 14.5897 12.0001 14.6297C11.9401 14.6197 11.8701 14.6197 11.8101 14.6297Z" stroke="black" stroke-width="1.5" stroke-linecap="round" stroke-linejoin="round"/>
<path d="M9.08973 21.1994C10.6897 22.2694 13.3097 22.2694 14.9097 21.1994C16.3197 20.2594 16.3197 18.7194 14.9097 17.7794C13.3197 16.7194 10.6897 16.7194 9.08973 17.7794C7.67973 18.7194 7.67973 20.2594 9.08973 21.1994Z" stroke="black" stroke-width="1.5" stroke-linecap="round" stroke-linejoin="round"/>
</svg>
