<?xml version="1.0" ?><svg id="Layer_1" style="enable-background:new 0 0 120 120;" version="1.1" viewBox="0 0 120 120" xml:space="preserve" xmlns="http://www.w3.org/2000/svg" xmlns:xlink="http://www.w3.org/1999/xlink"><style type="text/css">
	.st0{fill:#5C78FF;}
	.st1{fill:#FFFFFF;}
	.st2{fill:#69F985;}
</style><g><circle class="st0" cx="60" cy="60.5" r="47.6"/><g><circle class="st1" cx="60" cy="46.7" r="13.3"/><path class="st1" d="M60,63.4c-13.3,0-24.8,7.6-30.3,19.1v1c0,2.1,1.8,3.9,3.9,3.9h52.8c2.1,0,3.9-1.8,3.9-3.9v-1    C84.8,71.2,73.3,63.4,60,63.4z"/></g><circle class="st2" cx="88.7" cy="94.2" r="13.8"/><path class="st1" d="M94.8,92.1h-4v-4c0-1.1-0.9-1.9-1.9-1.9h-0.4c-1.1,0-1.9,0.9-1.9,1.9v4h-4c-1.1,0-1.9,0.9-1.9,1.9v0.4   c0,1.1,0.9,1.9,1.9,1.9h4v4c0,1.1,0.9,1.9,1.9,1.9H89c1.1,0,1.9-0.9,1.9-1.9v-4h4c1.1,0,1.9-0.9,1.9-1.9V94   C96.7,92.9,95.9,92.1,94.8,92.1z"/></g></svg>