<?xml version="1.0" encoding="UTF-8"?>
<svg xmlns="http://www.w3.org/2000/svg" xmlns:xlink="http://www.w3.org/1999/xlink" width="73px" height="73px" viewBox="0 0 73 73" version="1.1">
<g id="surface1">
<path style=" stroke:none;fill-rule:nonzero;fill:rgb(0%,0%,0%);fill-opacity:1;" d="M 68.246094 30.851562 L 68.246094 25.828125 L 72.515625 25.828125 L 72.515625 16.425781 L 36.460938 2.832031 L 0.402344 16.425781 L 0.402344 25.828125 L 4.671875 25.828125 L 4.671875 30.851562 L 8.535156 30.851562 L 8.535156 55.605469 L 4.671875 55.605469 L 4.671875 60.632812 L 0.402344 60.632812 L 0.402344 70.085938 L 72.515625 70.085938 L 72.515625 60.632812 L 68.246094 60.632812 L 68.246094 55.605469 L 64.382812 55.605469 L 64.382812 30.851562 Z M 65.839844 28.449219 L 53.550781 28.449219 L 53.550781 25.828125 L 65.839844 25.828125 Z M 51.148438 55.605469 L 51.148438 60.632812 L 45.007812 60.632812 L 45.007812 55.605469 L 41.148438 55.605469 L 41.148438 30.851562 L 45.007812 30.851562 L 45.007812 25.828125 L 51.148438 25.828125 L 51.148438 30.851562 L 55.007812 30.851562 L 55.007812 55.605469 Z M 21.769531 30.851562 L 21.769531 25.828125 L 27.910156 25.828125 L 27.910156 30.851562 L 31.773438 30.851562 L 31.773438 55.605469 L 27.910156 55.605469 L 27.910156 60.632812 L 21.769531 60.632812 L 21.769531 55.605469 L 17.910156 55.605469 L 17.910156 30.851562 Z M 34.175781 55.605469 L 34.175781 30.851562 L 38.742188 30.851562 L 38.742188 55.605469 Z M 30.316406 28.449219 L 30.316406 25.828125 L 42.601562 25.828125 L 42.601562 28.449219 Z M 30.316406 58.011719 L 42.601562 58.011719 L 42.601562 60.632812 L 30.316406 60.632812 Z M 2.804688 18.089844 L 36.460938 5.402344 L 70.113281 18.089844 L 70.113281 23.425781 L 2.804688 23.425781 Z M 7.078125 25.828125 L 19.367188 25.828125 L 19.367188 28.449219 L 7.078125 28.449219 Z M 10.9375 30.851562 L 15.503906 30.851562 L 15.503906 55.605469 L 10.9375 55.605469 Z M 7.078125 58.011719 L 19.367188 58.011719 L 19.367188 60.632812 L 7.078125 60.632812 Z M 70.113281 67.683594 L 2.804688 67.683594 L 2.804688 63.035156 L 70.113281 63.035156 Z M 65.839844 60.628906 L 53.550781 60.628906 L 53.550781 58.011719 L 65.839844 58.011719 Z M 61.980469 55.605469 L 57.414062 55.605469 L 57.414062 30.851562 L 61.980469 30.851562 Z M 61.980469 55.605469 "/>
</g>
</svg>
